<?xml version="1.0" standalone="no"?>
<!DOCTYPE svg PUBLIC "-//W3C//DTD SVG 20010904//EN"
 "http://www.w3.org/TR/2001/REC-SVG-20010904/DTD/svg10.dtd">



<svg width="1158" height="203" viewBox="0 0 1158 203" fill="none" xmlns="http://www.w3.org/2000/svg">
<path d="M625.412 40.9317H621.971L613.134 34.1369L612.789 33.8686L601.978 25.55L594.982 20.1257C594.982 20.1257 584.017 11.2033 582.35 10.4079C580.473 9.51894 578.411 9.09084 576.336 9.15918C574.26 9.22752 572.231 9.79034 570.417 10.8008C569.584 11.3748 568.798 12.0158 568.069 12.7175C566.661 14.2997 565.451 16.0471 564.465 17.9214C562.598 21.449 561.571 25.3608 561.466 29.351C561.362 33.3411 562.181 37.3014 563.862 40.9221H564.14V178.926L575.334 185.922L583.001 190.714L580.653 195.419L572.507 190.331L564.159 185.117L540.994 170.588V40.9317C538.72 36.7982 537.371 32.2203 537.04 27.5144C536.709 22.8085 537.404 18.0869 539.077 13.6759C539.77 12.3158 540.601 11.0311 541.559 9.84246C544.589 6.71903 548.217 4.2378 552.226 2.54681C556.236 0.855808 560.545 -0.0103195 564.897 9.27745e-05C566.313 0.0020312 567.728 0.0916497 569.133 0.268434C573.648 0.860398 577.985 2.40207 581.861 4.7919L581.966 4.8494L582.273 5.04107C582.992 5.4915 583.682 5.99943 584.353 6.46903C585.311 7.17822 601.71 21.0361 601.71 21.0361L613.441 30.8881L625.412 40.9317Z" fill="black"/>
<path d="M822.455 191.049L820.107 195.755L811.96 190.666L803.612 185.452L779.776 170.588L779.508 170.416V119.067L779.68 119.143V112.282L779.517 112.186L765.735 103.436C765.735 109.129 765.735 113.106 765.735 113.221V119.067C765.735 119.067 766.885 128.315 766.885 130.634C766.887 134.271 765.862 137.834 763.928 140.914C761.994 143.994 759.23 146.465 755.953 148.043C752.677 149.621 749.021 150.242 745.407 149.834C741.793 149.426 738.368 148.007 735.525 145.738C734.689 145.066 733.907 144.329 733.187 143.534C730.707 140.769 729.076 137.348 728.49 133.68C727.905 130.012 728.389 126.253 729.884 122.853C731.38 119.453 733.824 116.557 736.924 114.51C740.024 112.463 743.648 111.354 747.362 111.314C744.518 109.048 741.092 107.632 737.479 107.226C733.865 106.821 730.211 107.443 726.935 109.022C723.66 110.6 720.896 113.071 718.962 116.15C717.028 119.229 716.002 122.791 716.002 126.427C716.002 134.631 727.944 144.482 727.743 144.492L735.717 149.562L779.508 177.354L800.593 190.953L798.235 195.822L779.508 184.005L765.735 175.208L741.64 159.874L713.903 142.25L705.929 137.18C702.372 134.019 699.638 130.038 697.965 125.584C697.802 125.162 697.658 124.731 697.524 124.309C696.104 119.919 695.743 115.255 696.471 110.699C697.198 106.143 698.993 101.823 701.709 98.0931C704.426 94.3631 707.986 91.3286 712.099 89.2374C716.212 87.1462 720.761 86.0577 725.376 86.0608H725.999C731.793 86.1829 737.421 88.0242 742.167 91.351L743.605 89.3767L735.938 84.5274L731.567 81.7578L734.845 77.196L741.64 81.4607L765.735 96.7945L779.498 105.535L779.642 105.631L779.565 61.958H719.644C717.107 61.9593 714.595 61.4607 712.251 60.4908C709.907 59.5209 707.777 58.0987 705.982 56.3054C704.188 54.5121 702.765 52.3828 701.793 50.0393C700.822 47.6957 700.322 45.1838 700.322 42.6471C700.322 42.1966 700.322 41.7558 700.322 41.3149H803.612V179.319L814.807 186.315L822.455 191.049Z" fill="black"/>
<path d="M1157.95 191.049L1155.6 195.755L1147.45 190.666L1139.1 185.452L1115.26 170.588L1115.19 170.531L1115.38 153.788C1115.32 153.788 1110.47 154.564 1110.41 154.555C1096.95 153.597 1088.77 151.344 1077.19 145.786C1063.61 139.257 1051.58 129.898 1041.92 118.338L1042.96 116.508C1047.16 117.09 1051.44 116.268 1055.13 114.17C1058.82 112.071 1061.72 108.813 1063.36 104.902V104.902C1063.54 104.5 1063.69 104.088 1063.83 103.675C1065.77 98.9141 1068.81 94.68 1072.7 91.3207C1076.6 87.9614 1081.23 85.5726 1086.22 84.3502C1091.22 83.1279 1096.43 83.1068 1101.43 84.2887C1106.43 85.4707 1111.09 87.822 1115 91.1497L1115.19 91.3126V62.2264H1115L1077.13 62.0922L1055.08 61.9676C1049.96 61.9676 1045.05 59.9321 1041.42 56.3088C1037.8 52.6855 1035.76 47.7712 1035.76 42.6471C1035.76 42.1966 1035.76 41.7558 1035.82 41.3149H1139.05V179.319L1150.25 186.315L1157.95 191.049Z" fill="black"/>
<path d="M989.911 177.373V114.907L963.516 98.5003V117.342L958.781 114.4L951.67 109.962V62.7343H952.628C959.813 61.8571 966.738 59.501 972.967 55.8145C979.195 52.128 984.593 47.191 988.818 41.3149H867.53C869.808 47.5911 873.964 53.0135 879.433 56.8456C884.901 60.6778 891.416 62.7338 898.094 62.7343H926.751V93.6414C925.16 92.8327 923.528 92.1066 921.863 91.466V91.466C915.857 89.152 909.475 87.9693 903.039 87.9775H902.828C896.814 87.9954 890.848 89.0524 885.193 91.1018C884.407 91.3797 883.631 91.6864 882.864 92.0026C882.328 92.3477 881.8 92.7022 881.283 93.0568C875.297 97.1918 870.238 102.528 866.428 108.725C862.618 114.923 860.14 121.845 859.153 129.053L884.848 145.029L894.433 150.971L923.511 169.045L926.779 171.077L938.098 178.111L938.884 178.61L940.437 179.568L951.67 186.555L963.535 193.924L963.803 194.097L967.187 188.701L963.535 186.43L951.67 179.06V118.319L962.327 124.941L963.535 125.689V170.531L989.93 186.938L1002.51 194.768L1007.19 188.107L989.911 177.373ZM926.751 115.137C918.838 115.139 911.198 118.024 905.26 123.253C899.321 128.482 895.493 135.695 894.49 143.543L883.947 136.969C884.002 131.843 885.268 126.802 887.643 122.259C890.017 117.715 893.432 113.798 897.61 110.826C901.787 107.854 906.608 105.913 911.68 105.16C916.751 104.407 921.928 104.864 926.789 106.493L926.751 115.137Z" fill="black"/>
<path d="M694.304 185.922L683.109 178.926V40.9219H579.867C579.867 41.3627 579.82 41.8036 579.82 42.254C579.813 46.6399 581.304 50.8966 584.046 54.3198C584.439 54.8085 584.851 55.2781 585.292 55.7286C585.656 56.1119 586.04 56.4665 586.433 56.8115C589.947 59.872 594.452 61.5541 599.113 61.5458H621.156V84.6615C616.78 83.8792 612.29 84.002 607.963 85.0223C603.636 86.0426 599.564 87.9388 595.998 90.5937L594.455 89.9037L589.385 87.6515L586.806 91.0921L591.033 93.2196L592.25 93.833C586.567 99.5798 583.237 107.244 582.915 115.319C582.915 115.463 582.915 115.597 582.915 115.732C582.915 116.048 582.915 116.354 582.915 116.69C582.915 117.217 582.915 117.744 582.915 118.271C582.934 118.736 582.905 119.202 582.829 119.661C582.768 119.879 582.694 120.093 582.609 120.303C582.074 121.398 581.242 122.321 580.208 122.966C579.175 123.612 577.981 123.954 576.762 123.954C576.288 123.952 575.816 123.901 575.353 123.801C574.944 123.657 574.544 123.487 574.155 123.293L573.618 122.958L572.229 122.085L572.123 122.018H572.056L569.363 126.676L621.118 159.586L645.213 174.92L658.986 183.67L677.675 195.553L680.033 190.685L658.947 177.268L645.175 168.518L621.08 153.184L614.84 149.226H615.339C617.266 149.226 619.19 149.06 621.089 148.728C622.048 148.565 622.92 148.354 623.811 148.115L624.281 147.99C628.407 146.81 632.257 144.823 635.609 142.144C638.491 139.348 640.83 136.044 642.51 132.397C644.026 128.835 644.961 125.053 645.28 121.194L647.398 122.153L658.957 127.539V170.013L659.225 170.186L683.061 185.069L691.409 190.282L699.556 195.371L701.904 190.666L694.304 185.922ZM635.677 102.544L635.475 102.42H635.677V102.544ZM659.005 118.722C658.511 118.743 658.024 118.605 657.615 118.329C657.452 118.175 657.289 118.022 657.126 117.888L645.232 112.885C645.232 112.444 645.309 61.6225 645.309 61.6225H659.072V69.481L659.139 106.081V118.798L659.005 118.722Z" fill="black"/>
<path d="M853.278 115.262L848.601 121.923L836.007 114.093L809.803 97.8006V41.334H834.838L836.007 42.0623V104.528L853.278 115.262Z" fill="black"/>
<path d="M1042.25 115.262L1037.57 121.923L1024.99 114.093L998.786 97.8006V41.334H1023.82L1024.99 42.0623V104.528L1042.25 115.262Z" fill="black"/>
<path d="M8.46287 74.4931C12.2687 74.4931 15.354 71.4081 15.354 67.6025C15.354 63.7969 12.2687 60.7119 8.46287 60.7119C4.65702 60.7119 1.57178 63.7969 1.57178 67.6025C1.57178 71.4081 4.65702 74.4931 8.46287 74.4931Z" fill="black"/>
<path d="M95.6318 78.9497V79.0743L96.7053 78.9497H95.6318Z" fill="black"/>
<path d="M121.289 192.458L109.424 185.04V38.8135H0C0 39.2831 0 39.7718 0 40.2414C-1.48526e-05 45.6623 2.15027 50.8618 5.97916 54.6994C9.80804 58.537 15.0029 60.6993 20.4241 60.712H43.7426V83.1377C38.7809 82.2544 33.686 82.4687 28.816 83.7654C23.9461 85.0622 19.4194 87.41 15.5541 90.6438C11.6889 93.8775 8.57907 97.9187 6.44326 102.483C4.30745 107.047 3.19754 112.024 3.19156 117.064C3.19156 117.619 3.19156 118.185 3.23948 118.731C3.35178 121.18 3.72774 123.609 4.36084 125.976L26.2896 139.662L32.8165 143.754L38.3754 147.233L43.733 150.578L44.2506 150.903L57.889 159.423L69.5434 166.707L74.3356 169.697L80.5845 173.597L84.1499 175.821L109.414 191.595L118.26 197.125L126.886 202.521L129.378 197.537L121.289 192.458ZM82.3768 120.801C79.3896 118.049 75.8655 115.945 72.0258 114.62C71.1834 114.323 70.326 114.07 69.4572 113.863C65.3757 112.864 61.1284 112.745 56.9973 113.513C52.8662 114.281 48.9459 115.92 45.4965 118.319C44.8831 119.057 44.2985 119.833 43.7618 120.629C39.786 126.369 37.6623 133.188 37.6758 140.17V140.227L33.2574 137.467L24.7753 132.167C24.7274 131.468 24.6987 130.749 24.6987 130.03C24.6986 124.8 26.085 119.662 28.7167 115.142C31.3483 110.621 35.1312 106.879 39.6799 104.296C44.2287 101.713 49.3808 100.382 54.6116 100.438C59.8423 100.494 64.9647 101.935 69.4572 104.615V103.714L69.3709 60.9133V60.712H83.939V60.9133L84.0349 107.873V122.498C83.5365 121.875 82.9806 121.328 82.3768 120.801ZM95.6031 79.0742V78.9496H96.7532L95.6031 79.0742Z" fill="black"/>
<path d="M301.703 192.86L289.838 185.452V39.2256H180.424C180.424 39.6856 180.376 40.1839 180.376 40.644C180.373 43.3329 180.901 45.996 181.929 48.4807C182.957 50.9654 184.465 53.2231 186.366 55.1245C188.268 57.0258 190.526 58.5336 193.011 59.5615C195.496 60.5893 198.159 61.1171 200.848 61.1145H224.157V85.5719C219.519 84.744 214.76 84.8746 210.174 85.9559C205.589 87.0371 201.273 89.046 197.493 91.8588L195.864 91.1304L190.507 88.7441L187.804 92.3954L192.289 94.6476L193.574 95.2993C187.549 101.389 184.018 109.511 183.673 118.07C183.673 118.214 183.673 118.357 183.673 118.501C183.673 118.837 183.673 119.162 183.673 119.46C183.673 120.015 183.673 120.571 183.673 121.127C183.689 121.624 183.656 122.122 183.577 122.613C183.514 122.845 183.434 123.073 183.338 123.293C182.767 124.447 181.885 125.418 180.79 126.096C179.696 126.773 178.433 127.13 177.146 127.126C176.643 127.126 176.142 127.071 175.651 126.964C175.22 126.838 174.797 126.684 174.386 126.504L173.811 126.139L172.335 125.181L172.229 125.104L172.143 125.056L169.268 129.992L224.138 164.876L249.699 181.13L264.296 190.407L284.107 203L286.598 197.844L264.296 183.66L249.699 174.422L224.157 158.129L217.544 153.922H218.08C220.118 153.924 222.151 153.744 224.157 153.386C225.115 153.213 226.074 153.002 227.032 152.743L227.531 152.609C231.909 151.372 235.997 149.277 239.559 146.447C242.607 143.47 245.083 139.959 246.862 136.087C248.469 132.312 249.459 128.302 249.795 124.213L252.047 125.267L264.296 131.017V176.06L264.583 176.242L289.838 192.017L298.684 197.537L307.31 202.933L309.792 197.949L301.703 192.86ZM239.559 104.461L239.348 104.317H239.559V104.461ZM264.286 121.606C263.765 121.629 263.25 121.481 262.82 121.185L262.293 120.715L249.689 115.415C249.689 114.955 249.766 61.0858 249.766 61.0858H264.353L264.44 108.199L264.478 121.712L264.286 121.606Z" fill="black"/>
<path d="M96.7531 78.9497L95.6797 79.0743V78.9497H96.7531Z" stroke="black" stroke-miterlimit="10"/>
<path d="M351.398 95.7307C350.339 95.3343 349.261 94.992 348.168 94.7052L347.506 94.5327C348.838 94.8111 350.14 95.2122 351.398 95.7307V95.7307Z" fill="black"/>
<path d="M161.37 116.565L156.415 123.619L143.074 115.32L115.299 98.0594V38.6123H142.48L143.074 38.9765V105.19L161.37 116.565Z" fill="black"/>
<path d="M343.414 116.968L338.459 124.021L325.108 115.732L297.342 98.4619V38.6123H323.872L325.108 39.3886V105.592L343.414 116.968Z" fill="black"/>
<path d="M476.453 197.518L473.961 202.502L465.335 197.106L456.489 191.576L431.244 175.802L431.158 175.754L431.369 158.005L430.957 158.072V126.667L418.938 119.191L412.756 115.358C418.574 124.942 419.551 135.33 414.29 142.595C409.833 148.747 401.83 151.364 392.878 150.472C384.899 149.527 377.308 146.503 370.863 141.703C363.397 136.289 358.011 129.388 355.212 122.45C354.877 121.626 354.589 120.801 354.33 119.977C354.254 119.76 354.187 119.54 354.129 119.316C352.212 112.492 352.778 105.841 356.468 100.743C360.675 94.9353 368.046 92.2902 376.393 92.7598C378.126 92.8596 379.849 93.0837 381.55 93.4306C382.307 93.5744 383.074 93.7469 383.831 93.9482C386.917 94.7618 389.91 95.8923 392.763 97.3216V97.3216C395.237 98.5622 397.605 100.001 399.846 101.625L400.67 102.238L415.171 111.247L430.899 121.031V91.6098C430.97 91.6587 431.038 91.7132 431.1 91.7727V60.9805H430.899L411.405 60.9135L390.76 60.8368L367.451 60.7122C362.028 60.7071 356.828 58.5492 352.995 54.7125C349.161 50.8759 347.008 45.6745 347.008 40.2512C347.008 39.772 347.008 39.2928 347.056 38.8232H456.47V185.04L468.345 192.458L476.453 197.518Z" fill="black"/>
</svg>









