<?xml version="1.0" encoding="UTF-8" standalone="no"?>
<!-- Created with Inkscape (http://www.inkscape.org/) -->

<svg
   version="1.1"
   id="svg2"
   xml:space="preserve"
   width="2133.3333"
   height="2133.3333"
   viewBox="0 0 2133.3333 2133.3333"
   sodipodi:docname="round.ai"
   xmlns:inkscape="http://www.inkscape.org/namespaces/inkscape"
   xmlns:sodipodi="http://sodipodi.sourceforge.net/DTD/sodipodi-0.dtd"
   xmlns="http://www.w3.org/2000/svg"
   xmlns:svg="http://www.w3.org/2000/svg"><defs
     id="defs6"><clipPath
       clipPathUnits="userSpaceOnUse"
       id="clipPath16"><path
         d="M 0,1600 H 1600 V 0 H 0 Z"
         id="path14" /></clipPath><clipPath
       clipPathUnits="userSpaceOnUse"
       id="clipPath24"><path
         d="M 14.062,1513.37 H 1555.44 V 13.375 H 14.062 Z"
         id="path22" /></clipPath><clipPath
       clipPathUnits="userSpaceOnUse"
       id="clipPath40"><path
         d="M 91.131,1438.37 H 1478.37 V 88.375 H 91.131 Z"
         id="path38" /></clipPath><clipPath
       clipPathUnits="userSpaceOnUse"
       id="clipPath56"><path
         d="M 168.2,1363.38 H 1401.3 V 163.375 H 168.2 Z"
         id="path54" /></clipPath><clipPath
       clipPathUnits="userSpaceOnUse"
       id="clipPath72"><path
         d="M 245.269,1288.38 H 1324.23 V 238.375 H 245.269 Z"
         id="path70" /></clipPath><clipPath
       clipPathUnits="userSpaceOnUse"
       id="clipPath88"><path
         d="M 322.338,1213.38 H 1247.17 V 313.375 H 322.338 Z"
         id="path86" /></clipPath><clipPath
       clipPathUnits="userSpaceOnUse"
       id="clipPath104"><path
         d="M 399.407,1138.37 H 1170.1 V 388.375 H 399.407 Z"
         id="path102" /></clipPath></defs><sodipodi:namedview
     id="namedview4"
     pagecolor="#ffffff"
     bordercolor="#666666"
     borderopacity="1.0"
     inkscape:pageshadow="2"
     inkscape:pageopacity="0.0"
     inkscape:pagecheckerboard="0" /><g
     id="g8"
     inkscape:groupmode="layer"
     inkscape:label="round"
     transform="matrix(1.3333333,0,0,-1.3333333,0,2133.3333)"><g
       id="g10"><g
         id="g12"
         clip-path="url(#clipPath16)"><g
           id="g18"><g
             id="g20" /><g
             id="g32"><g
               clip-path="url(#clipPath24)"
               opacity="0.100006"
               id="g30"><g
                 transform="translate(1555.4413,763.375)"
                 id="g28"><path
                   d="m 0,0 c 0,-414.214 -345.049,-750 -770.69,-750 -425.64,0 -770.689,335.786 -770.689,750 0,414.214 345.049,750 770.689,750 C -345.049,750 0,414.214 0,0"
                   style="fill:#8f59ce;fill-opacity:1;fill-rule:nonzero;stroke:none"
                   id="path26" /></g></g></g></g><g
           id="g34"><g
             id="g36" /><g
             id="g48"><g
               clip-path="url(#clipPath40)"
               opacity="0.199997"
               id="g46"><g
                 transform="translate(1478.3723,763.375)"
                 id="g44"><path
                   d="m 0,0 c 0,-372.792 -310.545,-675 -693.621,-675 -383.076,0 -693.62,302.208 -693.62,675 0,372.792 310.544,675 693.62,675 C -310.545,675 0,372.792 0,0"
                   style="fill:#8f59ce;fill-opacity:1;fill-rule:nonzero;stroke:none"
                   id="path42" /></g></g></g></g><g
           id="g50"><g
             id="g52" /><g
             id="g64"><g
               clip-path="url(#clipPath56)"
               opacity="0.300003"
               id="g62"><g
                 transform="translate(1401.3033,763.375)"
                 id="g60"><path
                   d="m 0,0 c 0,-331.371 -276.04,-600 -616.552,-600 -340.512,0 -616.551,268.629 -616.551,600 0,331.371 276.039,600 616.551,600 C -276.04,600 0,331.371 0,0"
                   style="fill:#8f59ce;fill-opacity:1;fill-rule:nonzero;stroke:none"
                   id="path58" /></g></g></g></g><g
           id="g66"><g
             id="g68" /><g
             id="g80"><g
               clip-path="url(#clipPath72)"
               opacity="0.399994"
               id="g78"><g
                 transform="translate(1324.2344,763.375)"
                 id="g76"><path
                   d="m 0,0 c 0,-289.949 -241.535,-525 -539.483,-525 -297.948,0 -539.482,235.051 -539.482,525 0,289.949 241.534,525 539.482,525 C -241.535,525 0,289.949 0,0"
                   style="fill:#8f59ce;fill-opacity:1;fill-rule:nonzero;stroke:none"
                   id="path74" /></g></g></g></g><g
           id="g82"><g
             id="g84" /><g
             id="g96"><g
               clip-path="url(#clipPath88)"
               opacity="0.5"
               id="g94"><g
                 transform="translate(1247.1654,763.375)"
                 id="g92"><path
                   d="m 0,0 c 0,-248.528 -207.03,-450 -462.414,-450 -255.384,0 -462.414,201.472 -462.414,450 0,248.528 207.03,450 462.414,450 C -207.03,450 0,248.528 0,0"
                   style="fill:#8f59ce;fill-opacity:1;fill-rule:nonzero;stroke:none"
                   id="path90" /></g></g></g></g><g
           id="g98"><g
             id="g100" /><g
             id="g112"><g
               clip-path="url(#clipPath104)"
               opacity="0.699997"
               id="g110"><g
                 transform="translate(1170.0964,763.375)"
                 id="g108"><path
                   d="m 0,0 c 0,-207.107 -172.525,-375 -385.345,-375 -212.82,0 -385.345,167.893 -385.345,375 0,207.107 172.525,375 385.345,375 C -172.525,375 0,207.107 0,0"
                   style="fill:#8f59ce;fill-opacity:1;fill-rule:nonzero;stroke:none"
                   id="path106" /></g></g></g></g><g
           id="g114"
           transform="translate(1093.0275,763.375)"><path
             d="m 0,0 c 0,-165.685 -138.02,-300 -308.276,-300 -170.256,0 -308.276,134.315 -308.276,300 0,165.685 138.02,300 308.276,300 C -138.02,300 0,165.685 0,0"
             style="fill:#f8f7f9;fill-opacity:1;fill-rule:nonzero;stroke:none"
             id="path116" /></g></g></g></g></svg>
