<?xml version="1.0" encoding="UTF-8" standalone="no"?>
<!-- Created with Inkscape (http://www.inkscape.org/) -->

<svg
   version="1.1"
   id="svg2"
   xml:space="preserve"
   width="2560"
   height="1333.3333"
   viewBox="0 0 2560 1333.3333"
   sodipodi:docname="figma.ai"
   xmlns:inkscape="http://www.inkscape.org/namespaces/inkscape"
   xmlns:sodipodi="http://sodipodi.sourceforge.net/DTD/sodipodi-0.dtd"
   xmlns="http://www.w3.org/2000/svg"
   xmlns:svg="http://www.w3.org/2000/svg"><defs
     id="defs6"><clipPath
       clipPathUnits="userSpaceOnUse"
       id="clipPath16"><path
         d="M 0,1000 H 1920 V 0 H 0 Z"
         id="path14" /></clipPath><clipPath
       clipPathUnits="userSpaceOnUse"
       id="clipPath24"><path
         d="M 527.255,943.103 H 1357.44 V 112.923 H 527.255 Z"
         id="path22" /></clipPath><clipPath
       clipPathUnits="userSpaceOnUse"
       id="clipPath40"><path
         d="M 573.376,896.982 H 1311.32 V 159.044 H 573.376 Z"
         id="path38" /></clipPath><clipPath
       clipPathUnits="userSpaceOnUse"
       id="clipPath56"><path
         d="M 619.498,850.861 H 1265.19 V 205.165 H 619.498 Z"
         id="path54" /></clipPath><clipPath
       clipPathUnits="userSpaceOnUse"
       id="clipPath72"><path
         d="M 665.619,804.74 H 1219.07 V 251.286 H 665.619 Z"
         id="path70" /></clipPath><clipPath
       clipPathUnits="userSpaceOnUse"
       id="clipPath88"><path
         d="m 711.74,758.619 h 461.21 V 297.407 H 711.74 Z"
         id="path86" /></clipPath><clipPath
       clipPathUnits="userSpaceOnUse"
       id="clipPath104"><path
         d="m 711.74,758.619 h 461.21 V 297.407 H 711.74 Z"
         id="path102" /></clipPath></defs><sodipodi:namedview
     id="namedview4"
     pagecolor="#ffffff"
     bordercolor="#666666"
     borderopacity="1.0"
     inkscape:pageshadow="2"
     inkscape:pageopacity="0.0"
     inkscape:pagecheckerboard="0" /><g
     id="g8"
     inkscape:groupmode="layer"
     inkscape:label="figma"
     transform="matrix(1.3333333,0,0,-1.3333333,0,1333.3333)"><g
       id="g10"><g
         id="g12"
         clip-path="url(#clipPath16)"><g
           id="g18"><g
             id="g20" /><g
             id="g32"><g
               clip-path="url(#clipPath24)"
               opacity="0.199997"
               id="g30"><g
                 transform="translate(1357.4362,528.0129)"
                 id="g28"><path
                   d="m 0,0 c 0,-229.248 -185.842,-415.09 -415.09,-415.09 -229.249,0 -415.091,185.842 -415.091,415.09 0,229.248 185.842,415.09 415.091,415.09 C -185.842,415.09 0,229.248 0,0"
                   style="fill:#5551ac;fill-opacity:1;fill-rule:nonzero;stroke:none"
                   id="path26" /></g></g></g></g><g
           id="g34"><g
             id="g36" /><g
             id="g48"><g
               clip-path="url(#clipPath40)"
               opacity="0.300003"
               id="g46"><g
                 transform="translate(1311.3151,528.0129)"
                 id="g44"><path
                   d="m 0,0 c 0,-203.776 -165.193,-368.969 -368.969,-368.969 -203.776,0 -368.97,165.193 -368.97,368.969 0,203.776 165.194,368.969 368.97,368.969 C -165.193,368.969 0,203.776 0,0"
                   style="fill:#5551ac;fill-opacity:1;fill-rule:nonzero;stroke:none"
                   id="path42" /></g></g></g></g><g
           id="g50"><g
             id="g52" /><g
             id="g64"><g
               clip-path="url(#clipPath56)"
               opacity="0.399994"
               id="g62"><g
                 transform="translate(1265.1938,528.0129)"
                 id="g60"><path
                   d="m 0,0 c 0,-178.304 -144.544,-322.848 -322.848,-322.848 -178.304,0 -322.848,144.544 -322.848,322.848 0,178.304 144.544,322.848 322.848,322.848 C -144.544,322.848 0,178.304 0,0"
                   style="fill:#5551ac;fill-opacity:1;fill-rule:nonzero;stroke:none"
                   id="path58" /></g></g></g></g><g
           id="g66"><g
             id="g68" /><g
             id="g80"><g
               clip-path="url(#clipPath72)"
               opacity="0.5"
               id="g78"><g
                 transform="translate(1219.0728,528.0129)"
                 id="g76"><path
                   d="m 0,0 c 0,-152.832 -123.895,-276.727 -276.727,-276.727 -152.832,0 -276.727,123.895 -276.727,276.727 0,152.832 123.895,276.727 276.727,276.727 C -123.895,276.727 0,152.832 0,0"
                   style="fill:#5551ac;fill-opacity:1;fill-rule:nonzero;stroke:none"
                   id="path74" /></g></g></g></g><g
           id="g82"><g
             id="g84" /><g
             id="g96"><g
               clip-path="url(#clipPath88)"
               opacity="0.600006"
               id="g94"><g
                 transform="translate(1172.9515,528.0129)"
                 id="g92"><path
                   d="m 0,0 c 0,-127.36 -103.246,-230.606 -230.606,-230.606 -127.36,0 -230.606,103.246 -230.606,230.606 0,127.36 103.246,230.606 230.606,230.606 C -103.246,230.606 0,127.36 0,0"
                   style="fill:#5551ac;fill-opacity:1;fill-rule:nonzero;stroke:none"
                   id="path90" /></g></g></g></g><g
           id="g98"><g
             id="g100" /><g
             id="g112"><g
               clip-path="url(#clipPath104)"
               opacity="0.699997"
               id="g110"><g
                 transform="translate(1172.9515,528.0129)"
                 id="g108"><path
                   d="m 0,0 c 0,-127.36 -103.246,-230.606 -230.606,-230.606 -127.36,0 -230.606,103.246 -230.606,230.606 0,127.36 103.246,230.606 230.606,230.606 C -103.246,230.606 0,127.36 0,0"
                   style="fill:#5551ac;fill-opacity:1;fill-rule:nonzero;stroke:none"
                   id="path106" /></g></g></g></g><g
           id="g114"
           transform="translate(1126.8303,528.0129)"><path
             d="m 0,0 c 0,-101.888 -82.597,-184.485 -184.485,-184.485 -101.888,0 -184.484,82.597 -184.484,184.485 0,101.888 82.596,184.485 184.484,184.485 C -82.597,184.485 0,101.888 0,0"
             style="fill:#ffffff;fill-opacity:1;fill-rule:nonzero;stroke:none"
             id="path116" /></g></g></g></g></svg>
